# xmcd
#
# Track frame offsets: 
#        150
#        22692
#        41452
#        56187
#        82950
#        105444
#        139631
#        157345
#        176483
#        190560
#        212421
#        242013
#        260748
#        275944
#        287523
#
# Disc length: 4350 seconds
#
# Revision: 1
# Processed by: cddbd v1.5.2PL0 Copyright (c) Steve Scherf et al.
# Submitted via: ExactAudioCopyFreeDBPlugin 1.0
#
DISCID=cd10fc0f
DTITLE=Uncut - Songs Of The South
DYEAR=2010
DGENRE=Rock
TTITLE0=Reckless Kelly - Little Blossom
TTITLE1=Cadillac Sky - Ballad Of Restored Confidence
TTITLE2=Surfer Blood - Swim
TTITLE3=Caitlin Rose - Things Change
TTITLE4=Drive-By Truckers - This Fucking Job
TTITLE5=Bloodkin - The Viper
TTITLE6=James Apollo - No East, No West
TTITLE7=The Black Crowes - Soul Singing
TTITLE8=Elizabeth Cook - I'm Beginning To Forget
TTITLE9=Dead Confederate - Giving It All Away
TTITLE10=Hans Chew - I Would There Was A Train (Tennessee Part 3)
TTITLE11=The Secret Sisters - Big River
TTITLE12=Kurt Wagner and Cortney Tidwell - Eyes Look Away
TTITLE13=Parting Gifts - Keep Walking
TTITLE14=Rich Hopkins and Luminarios - El Otro Lado Suite
EXTD=
EXTT0=
EXTT1=
EXTT2=
EXTT3=
EXTT4=
EXTT5=
EXTT6=
EXTT7=
EXTT8=
EXTT9=
EXTT10=
EXTT11=
EXTT12=
EXTT13=
EXTT14=
PLAYORDER=
